<?xml version="1.0" encoding="UTF-8"?>
<svg width="30px" height="30px" viewBox="0 0 30 30" version="1.1" xmlns="http://www.w3.org/2000/svg" xmlns:xlink="http://www.w3.org/1999/xlink">
    <title>icons_outlined_colorful_favorites_dark</title>
    <g id="03主界面-我的页面" stroke="none" stroke-width="1" fill="none" fill-rule="evenodd">
        <path d="M30,15.0057195 C30,23.2629572 23.2629572,30 14.9941626,30 C6.737031,30 0,23.2629572 0,15.0057195 C0,6.737031 6.737031,-1.42108547e-14 14.9941626,-1.42108547e-14 C23.2629572,-1.42108547e-14 30,6.737031 30,15.0057195 Z M14.1995715,6.63338509 L12.5067317,11.9078991 L6.99038503,11.8733466 C5.99998821,11.8617897 5.74663417,12.9212445 6.48367696,13.4509719 L10.975027,16.6641247 L9.23606596,21.9039682 C8.92512825,22.8367696 9.76581694,23.4471589 10.5374123,22.8598833 L14.9941626,19.600739 L19.4509719,22.8598833 C20.2456809,23.4471589 21.0748246,22.8367696 20.7638515,21.9039682 L19.0249022,16.6641247 L23.5162641,13.439533 C24.2187543,12.9443582 24.0114389,11.8617897 22.9980935,11.8733466 L17.4817115,11.9078991 L15.8003105,6.63338509 C15.5124511,5.73511272 14.4759921,5.73511272 14.1995715,6.63338509 Z" id="icons_outlined_colorful_favorites_dark" fill="#FF453A" fill-rule="nonzero"></path>
    </g>
</svg>