<?xml version="1.0" encoding="UTF-8"?>
<svg width="31px" height="30px" viewBox="0 0 31 30" version="1.1" xmlns="http://www.w3.org/2000/svg" xmlns:xlink="http://www.w3.org/1999/xlink">
    <title>icons_cardimg</title>
    <g id="03主界面-我的页面" stroke="none" stroke-width="1" fill="none" fill-rule="evenodd">
        <g id="00我的页面一级图标" transform="translate(-261, -74)" fill-rule="nonzero">
            <g id="icons_cardimg" transform="translate(261.4955, 74)">
                <rect id="矩形" fill="#000000" opacity="0" x="0" y="0" width="30" height="30"></rect>
                <path d="M14.8075072,1.31809871 C15.1717144,1.31809871 15.4527017,1.03339176 15.4527017,0.653778902 C15.4527017,0.284710185 15.1717144,0 14.8075072,0 C14.4433,0 14.1518702,0.284710185 14.1518702,0.653778902 C14.1518702,1.03339176 14.4433,1.31809871 14.8075072,1.31809871 Z M17.2736314,1.53954188 C17.6378386,1.53954188 17.9188259,1.25483386 17.9188259,0.885764059 C17.9188259,0.516696421 17.6378386,0.221441015 17.2736314,0.221441015 C16.9094241,0.221441015 16.618101,0.516696421 16.618101,0.885764059 C16.618101,1.25483386 16.9094241,1.53954188 17.2736314,1.53954188 Z M19.6461997,2.18277232 C20.0104069,2.18277232 20.3017301,1.8980643 20.3017301,1.52900314 C20.3017301,1.15993118 20.0104069,0.864674695 19.6461997,0.864674695 C19.2819924,0.864674695 19.0010052,1.15993118 19.0010052,1.52900314 C19.0010052,1.8980643 19.2819924,2.18277232 19.6461997,2.18277232 Z M21.8938848,3.25835037 C22.258092,3.25835037 22.5389727,2.97364235 22.5389727,2.60457039 C22.5389727,2.23549843 22.258092,1.94025166 21.8938848,1.94025166 C21.5296775,1.94025166 21.2382478,2.23549843 21.2382478,2.60457039 C21.2382478,2.97364235 21.5296775,3.25835037 21.8938848,3.25835037 Z M23.9125817,4.69244004 C24.276789,4.69244004 24.5681122,4.39719327 24.5681122,4.02812131 C24.5681122,3.65904935 24.276789,3.37434133 23.9125817,3.37434133 C23.5483745,3.37434133 23.2570513,3.65904935 23.2570513,4.02812131 C23.2570513,4.39719327 23.5483745,4.69244004 23.9125817,4.69244004 Z M25.6607339,6.45342509 C26.0249411,6.45342509 26.3163709,6.16871707 26.3163709,5.79964511 C26.3163709,5.43058395 26.0249411,5.13532638 25.6607339,5.13532638 C25.2965266,5.13532638 25.0156459,5.43058395 25.0156459,5.79964511 C25.0156459,6.16871707 25.2965266,6.45342509 25.6607339,6.45342509 Z M27.0760062,8.50966771 C27.4402134,8.50966771 27.7315366,8.22495969 27.7315366,7.85588773 C27.7315366,7.48681577 27.4402134,7.19156901 27.0760062,7.19156901 C26.7117989,7.19156901 26.4308116,7.48681577 26.4308116,7.85588773 C26.4308116,8.22495969 26.7117989,8.50966771 27.0760062,8.50966771 Z M28.1165222,10.776804 C28.4807294,10.776804 28.7721591,10.4815464 28.7721591,10.1124744 C28.7721591,9.74341329 28.4807294,9.45870526 28.1165222,9.45870526 C27.7523149,9.45870526 27.4609917,9.74341329 27.4609917,10.1124744 C27.4609917,10.4815464 27.7523149,10.776804 28.1165222,10.776804 Z M28.7512742,13.1809871 C29.1154815,13.1809871 29.4069112,12.8963546 29.4069112,12.5167007 C29.4069112,12.1476288 29.1154815,11.8628884 28.7512742,11.8628884 C28.387067,11.8628884 28.0957438,12.1476288 28.0957438,12.5167007 C28.0957438,12.8963546 28.387067,13.1809871 28.7512742,13.1809871 Z M28.9593774,15.6485214 C29.3235847,15.6485214 29.6150144,15.363781 29.6150144,14.994709 C29.6150144,14.6256371 29.3235847,14.3304227 28.9593774,14.3304227 C28.5951702,14.3304227 28.3142895,14.6256371 28.3142895,14.994709 C28.3142895,15.363781 28.5951702,15.6485214 28.9593774,15.6485214 Z M28.7512742,18.1159478 C29.1154815,18.1159478 29.4069112,17.8313153 29.4069112,17.4622434 C29.4069112,17.0931714 29.1154815,16.7978491 28.7512742,16.7978491 C28.387067,16.7978491 28.0957438,17.0931714 28.0957438,17.4622434 C28.0957438,17.8313153 28.387067,18.1159478 28.7512742,18.1159478 Z M28.1165222,20.5307884 C28.4807294,20.5307884 28.7721591,20.235466 28.7721591,19.8663941 C28.7721591,19.4973221 28.4807294,19.2021077 28.1165222,19.2021077 C27.7523149,19.2021077 27.4609917,19.4973221 27.4609917,19.8663941 C27.4609917,20.235466 27.7523149,20.5307884 28.1165222,20.5307884 Z M27.0760062,22.7873319 C27.4402134,22.7873319 27.7315366,22.5025915 27.7315366,22.1230456 C27.7315366,21.7539736 27.4402134,21.4692332 27.0760062,21.4692332 C26.7117989,21.4692332 26.4308116,21.7539736 26.4308116,22.1230456 C26.4308116,22.5025915 26.7117989,22.7873319 27.0760062,22.7873319 Z M25.6607339,24.8435745 C26.0249411,24.8435745 26.3163709,24.5588341 26.3163709,24.1897622 C26.3163709,23.8102162 26.0249411,23.5254758 25.6607339,23.5254758 C25.2965266,23.5254758 25.0156459,23.8102162 25.0156459,24.1897622 C25.0156459,24.5588341 25.2965266,24.8435745 25.6607339,24.8435745 Z M23.9125817,26.6150767 C24.276789,26.6150767 24.5681122,26.3198624 24.5681122,25.9507904 C24.5681122,25.5817184 24.276789,25.296978 23.9125817,25.296978 C23.5483745,25.296978 23.2570513,25.5817184 23.2570513,25.9507904 C23.2570513,26.3198624 23.5483745,26.6150767 23.9125817,26.6150767 Z M21.8938848,28.0386709 C22.258092,28.0386709 22.5389727,27.7539304 22.5389727,27.3848585 C22.5389727,27.0157865 22.258092,26.7205721 21.8938848,26.7205721 C21.5296775,26.7205721 21.2382478,27.0157865 21.2382478,27.3848585 C21.2382478,27.7539304 21.5296775,28.0386709 21.8938848,28.0386709 Z M19.6461997,29.1142489 C20.0104069,29.1142489 20.3017301,28.8295085 20.3017301,28.4604365 C20.3017301,28.0808906 20.0104069,27.7961502 19.6461997,27.7961502 C19.2819924,27.7961502 19.0010052,28.0808906 19.0010052,28.4604365 C19.0010052,28.8295085 19.2819924,29.1142489 19.6461997,29.1142489 Z M17.2736314,29.7574793 C17.6378386,29.7574793 17.9188259,29.4727389 17.9188259,29.103667 C17.9188259,28.7241211 17.6378386,28.4393806 17.2736314,28.4393806 C16.9094241,28.4393806 16.618101,28.7241211 16.618101,29.103667 C16.618101,29.4727389 16.9094241,29.7574793 17.2736314,29.7574793 Z M14.8075072,29.9789441 C15.1717144,29.9789441 15.4527017,29.6942037 15.4527017,29.3251317 C15.4527017,28.9560598 15.1717144,28.6608454 14.8075072,28.6608454 C14.4433,28.6608454 14.1518702,28.9560598 14.1518702,29.3251317 C14.1518702,29.6942037 14.4433,29.9789441 14.8075072,29.9789441 Z M12.3412765,29.7574793 C12.7054837,29.7574793 12.986471,29.4727389 12.986471,29.103667 C12.986471,28.7241211 12.7054837,28.4393806 12.3412765,28.4393806 C11.9770692,28.4393806 11.685746,28.7241211 11.685746,29.103667 C11.685746,29.4727389 11.9770692,29.7574793 12.3412765,29.7574793 Z M9.95837226,29.1142489 C10.3225795,29.1142489 10.6139453,28.8295085 10.6139453,28.4604365 C10.6139453,28.0808906 10.3225795,27.7961502 9.95837226,27.7961502 C9.59417567,27.7961502 9.31320971,28.0808906 9.31320971,28.4604365 C9.31320971,28.8295085 9.59417567,29.1142489 9.95837226,29.1142489 Z M7.72111898,28.0386709 C8.08532622,28.0386709 8.36628153,27.7539304 8.36628153,27.3848585 C8.36628153,27.0157865 8.08532622,26.7205721 7.72111898,26.7205721 C7.35692239,26.7205721 7.06555659,27.0157865 7.06555659,27.3848585 C7.06555659,27.7539304 7.35692239,28.0386709 7.72111898,28.0386709 Z M5.70239004,26.6150767 C6.06659729,26.6150767 6.34755259,26.3198624 6.34755259,25.9507904 C6.34755259,25.5817184 6.06659729,25.296978 5.70239004,25.296978 C5.33819346,25.296978 5.04682766,25.5817184 5.04682766,25.9507904 C5.04682766,26.3198624 5.33819346,26.6150767 5.70239004,26.6150767 Z M3.9438061,24.8435745 C4.30801334,24.8435745 4.59937914,24.5588341 4.59937914,24.1897622 C4.59937914,23.8102162 4.30801334,23.5254758 3.9438061,23.5254758 C3.57960951,23.5254758 3.29864355,23.8102162 3.29864355,24.1897622 C3.29864355,24.5588341 3.57960951,24.8435745 3.9438061,24.8435745 Z M2.52861907,22.7873319 C2.90322615,22.7873319 3.18418146,22.5025915 3.18418146,22.1230456 C3.18418146,21.7539736 2.90322615,21.4692332 2.52861907,21.4692332 C2.16441183,21.4692332 1.88345652,21.7539736 1.88345652,22.1230456 C1.88345652,22.5025915 2.16441183,22.7873319 2.52861907,22.7873319 Z M1.49843896,20.5307884 C1.8626462,20.5307884 2.14360151,20.235466 2.14360151,19.8663941 C2.14360151,19.4973221 1.8626462,19.2021077 1.49843896,19.2021077 C1.13423172,19.2021077 0.842872314,19.4973221 0.842872314,19.8663941 C0.842872314,20.235466 1.13423172,20.5307884 1.49843896,20.5307884 Z M0.8636837,18.1159478 C1.22788348,18.1159478 1.50884945,17.8313153 1.50884945,17.4622434 C1.50884945,17.0931714 1.22788348,16.7978491 0.8636837,16.7978491 C0.499479653,16.7978491 0.208115989,17.0931714 0.208115989,17.4622434 C0.208115989,17.8313153 0.499479653,18.1159478 0.8636837,18.1159478 Z M0.655566645,15.6485214 C1.01977069,15.6485214 1.30072493,15.363781 1.30072493,14.994709 C1.30072493,14.6256371 1.01977069,14.3304227 0.655566645,14.3304227 C0.280957438,14.3304227 0,14.6256371 0,14.994709 C0,15.363781 0.280957438,15.6485214 0.655566645,15.6485214 Z M0.8636837,13.1809871 C1.22788348,13.1809871 1.50884945,12.8963546 1.50884945,12.5167007 C1.50884945,12.1476288 1.22788348,11.8628884 0.8636837,11.8628884 C0.499479653,11.8628884 0.208115989,12.1476288 0.208115989,12.5167007 C0.208115989,12.8963546 0.499479653,13.1809871 0.8636837,13.1809871 Z M1.49843896,10.776804 C1.8626462,10.776804 2.14360151,10.4815464 2.14360151,10.1124744 C2.14360151,9.74341329 1.8626462,9.45870526 1.49843896,9.45870526 C1.13423172,9.45870526 0.842872314,9.74341329 0.842872314,10.1124744 C0.842872314,10.4815464 1.13423172,10.776804 1.49843896,10.776804 Z M2.52861907,8.50966771 C2.90322615,8.50966771 3.18418146,8.22495969 3.18418146,7.85588773 C3.18418146,7.48681577 2.90322615,7.19156901 2.52861907,7.19156901 C2.16441183,7.19156901 1.88345652,7.48681577 1.88345652,7.85588773 C1.88345652,8.22495969 2.16441183,8.50966771 2.52861907,8.50966771 Z M3.9438061,6.45342509 C4.30801334,6.45342509 4.59937914,6.16871707 4.59937914,5.79964511 C4.59937914,5.43058395 4.30801334,5.13532638 3.9438061,5.13532638 C3.57960951,5.13532638 3.29864355,5.43058395 3.29864355,5.79964511 C3.29864355,6.16871707 3.57960951,6.45342509 3.9438061,6.45342509 Z M5.70239004,4.69244004 C6.06659729,4.69244004 6.34755259,4.39719327 6.34755259,4.02812131 C6.34755259,3.65904935 6.06659729,3.37434133 5.70239004,3.37434133 C5.33819346,3.37434133 5.04682766,3.65904935 5.04682766,4.02812131 C5.04682766,4.39719327 5.33819346,4.69244004 5.70239004,4.69244004 Z M7.72111898,3.25835037 C8.08532622,3.25835037 8.36628153,2.97364235 8.36628153,2.60457039 C8.36628153,2.23549843 8.08532622,1.94025166 7.72111898,1.94025166 C7.35692239,1.94025166 7.06555659,2.23549843 7.06555659,2.60457039 C7.06555659,2.97364235 7.35692239,3.25835037 7.72111898,3.25835037 Z M9.95837226,2.18277232 C10.3225795,2.18277232 10.6139453,1.8980643 10.6139453,1.52900314 C10.6139453,1.15993118 10.3225795,0.864674695 9.95837226,0.864674695 C9.59417567,0.864674695 9.31320971,1.15993118 9.31320971,1.52900314 C9.31320971,1.8980643 9.59417567,2.18277232 9.95837226,2.18277232 Z M12.3412765,1.53954188 C12.7054837,1.53954188 12.986471,1.25483386 12.986471,0.885764059 C12.986471,0.516696421 12.7054837,0.221441015 12.3412765,0.221441015 C11.9770692,0.221441015 11.685746,0.516696421 11.685746,0.885764059 C11.685746,1.25483386 11.9770692,1.53954188 12.3412765,1.53954188 Z" id="形状" fill="#0A84FF"></path>
                <path d="M14.8075072,25.8558769 C20.728379,25.8558769 25.5255148,21.0158297 25.5255148,14.994709 C25.5255148,9.01581891 20.7076006,4.13356273 14.8075072,4.13356273 C8.84495086,4.13356273 4.08948899,8.98418109 4.08948899,14.994709 C4.08948899,21.0368856 8.83455103,25.8558769 14.8075072,25.8558769 Z M14.8075072,24.6432736 C9.49011341,24.6432736 5.27575184,20.3725993 5.27575184,14.994709 C5.27575184,9.63796107 9.53173405,5.33568128 14.8075072,5.33568128 C20.0624061,5.33568128 24.3392306,9.66959889 24.3392306,14.994709 C24.3392306,20.3409614 20.083291,24.6432736 14.8075072,24.6432736 Z" id="形状" fill="#0A84FF"></path>
                <path d="M14.8075072,20.4358749 C17.7731643,20.4358749 20.1560685,18.0211423 20.1560685,15.0157649 C20.1560685,12.0104956 17.7627219,9.58523496 14.8075072,9.58523496 C11.8418501,9.58523496 9.44849277,12.0104956 9.44849277,15.0157649 C9.44849277,18.0316162 11.8314076,20.4358749 14.8075072,20.4358749 Z M14.8075072,18.1898053 C13.0593551,18.1898053 11.6753036,16.7767932 11.6753036,15.0157649 C11.6753036,13.2548447 13.069691,11.8418325 14.8075072,11.8418325 C16.5244385,11.8418325 17.9396043,13.2654266 17.9396043,15.0157649 C17.9396043,16.7662112 16.534881,18.1898053 14.8075072,18.1898053 Z" id="形状" fill="#0A84FF"></path>
            </g>
        </g>
    </g>
</svg>