<?xml version="1.0" encoding="UTF-8"?>
<svg width="24px" height="24px" viewBox="0 0 24 24" version="1.1" xmlns="http://www.w3.org/2000/svg" xmlns:xlink="http://www.w3.org/1999/xlink">
    <title>icons_filled_more</title>
    <g id="001聊天页" stroke="none" stroke-width="1" fill="none" fill-rule="evenodd">
        <g id="icons_filled_more" transform="translate(-0, 0)" fill-rule="nonzero">
            <rect id="矩形" fill="#000000" opacity="0" x="0" y="0" width="24" height="24"></rect>
            <path d="M11.8273542,23.9816175 C18.3587796,23.9816175 23.6639174,18.6144939 23.6639174,11.9953808 C23.6639174,5.37628658 18.3587796,0 11.8273542,0 C5.29598462,0 0,5.37628658 0,11.9953808 C0,18.6144939 5.29598462,23.9816175 11.8273542,23.9816175 Z M11.8273542,22.2692172 C6.22255124,22.2692172 1.68963133,17.6754782 1.68963133,11.9953808 C1.68963133,6.31530225 6.22255124,1.72151616 11.8273542,1.72151616 C17.4322037,1.72151616 21.9651794,6.31530225 21.9651794,11.9953808 C21.9651794,17.6754782 17.4322037,22.2692172 11.8273542,22.2692172 Z" id="形状" fill="#0A84FF"></path>
            <path d="M17.2505349,13.6248242 C18.1408328,13.6248242 18.867508,12.8883931 18.867508,11.9769983 C18.867508,11.0747476 18.1408328,10.3383165 17.2505349,10.3383165 C16.3512139,10.3383165 15.6245388,11.0747476 15.6245388,11.9769983 C15.6245388,12.8883931 16.3512139,13.6248242 17.2505349,13.6248242 Z" id="路径" fill="#0A84FF"></path>
            <path d="M11.8183312,13.6248242 C12.7176522,13.6248242 13.4443273,12.8883931 13.4443273,11.9769983 C13.4443273,11.0747476 12.7176522,10.3383165 11.8183312,10.3383165 C10.9280332,10.3383165 10.2013581,11.0747476 10.2013581,11.9769983 C10.2013581,12.8883931 10.9280332,13.6248242 11.8183312,13.6248242 Z" id="路径" fill="#0A84FF"></path>
            <path d="M6.39515054,13.6248242 C7.2853834,13.6248242 8.01210505,12.8883931 8.01210505,11.9769983 C8.01210505,11.0747476 7.27630461,10.3383165 6.39515054,10.3383165 C5.49582959,10.3383165 4.76910793,11.0747476 4.76910793,11.9769983 C4.76910793,12.8883931 5.49582959,13.6248242 6.39515054,13.6248242 Z" id="路径" fill="#0A84FF"></path>
        </g>
    </g>
</svg>