<?xml version="1.0" encoding="UTF-8"?>
<svg width="30px" height="30px" viewBox="0 0 30 30" version="1.1" xmlns="http://www.w3.org/2000/svg" xmlns:xlink="http://www.w3.org/1999/xlink">
    <title>scan_regular</title>
    <g id="02主界面-发现页" stroke="none" stroke-width="1" fill="none" fill-rule="evenodd">
        <g id="00发现页一级图标" transform="translate(-336, -134)" fill-rule="nonzero">
            <g id="扫一扫" transform="translate(336, 92)">
                <g id="scan_regular" transform="translate(0, 42)">
                    <rect id="矩形" fill="#000000" opacity="0" x="0" y="0" width="30" height="30"></rect>
                    <path d="M1.05659077,9.67508841 C1.73328146,9.67508841 2.10131414,9.27798338 2.10131414,8.59206349 L2.10131414,4.7894125 C2.10131414,3.0565603 3.00356192,2.16606218 4.66561714,2.16606218 L8.48833562,2.16606218 C9.16502753,2.16606218 9.5568023,1.78098391 9.5568023,1.10710064 C9.5568023,0.42117951 9.16502753,0.0361011185 8.48833562,0.0361011185 L4.61813297,0.0361011185 C1.55520976,0.0361011185 0,1.58844478 0,4.66907092 L0,8.59206349 C0,9.27798338 0.37989764,9.67508841 1.05659077,9.67508841 Z M28.5042366,9.67508841 C29.1927935,9.67508841 29.5607775,9.27798338 29.5607775,8.59206349 L29.5607775,4.66907092 C29.5607775,1.61251063 28.0174814,0.0361011185 24.942681,0.0361011185 L21.0724662,0.0361011185 C20.3957014,0.0361011185 20.0040117,0.42117951 20.0040117,1.10710064 C20.0040117,1.78098391 20.3957014,2.16606218 21.0724662,2.16606218 L24.8951483,2.16606218 C26.5215964,2.16606218 27.4594877,3.0565603 27.4594877,4.7894125 L27.4594877,8.59206349 C27.4594877,9.27798338 27.8393854,9.67508841 28.5042366,9.67508841 Z M4.61813297,30 L8.48833562,30 C9.16502753,30 9.5568023,29.6149217 9.5568023,28.9290511 C9.5568023,28.2551334 9.16502753,27.8700551 8.48833562,27.8700551 L4.66561714,27.8700551 C3.00356192,27.8700551 2.10131414,26.9795077 2.10131414,25.2467171 L2.10131414,21.4439922 C2.10131414,20.7581216 1.7214165,20.3609672 1.05659077,20.3609672 C0.368025383,20.3609672 0,20.7581216 0,21.4439922 L0,25.3669847 C0,28.4476109 1.55520976,30 4.61813297,30 Z M21.0724662,30 L24.942681,30 C28.0174814,30 29.5607775,28.423582 29.5607775,25.3669847 L29.5607775,21.4439922 C29.5607775,20.7581216 29.1808799,20.3609672 28.5042366,20.3609672 C27.8274718,20.3609672 27.4594877,20.7581216 27.4594877,21.4439922 L27.4594877,25.2467171 C27.4594877,26.9795077 26.5215964,27.8700551 24.8951483,27.8700551 L21.0724662,27.8700551 C20.3957014,27.8700551 20.0040117,28.2551334 20.0040117,28.9290511 C20.0040117,29.6149217 20.3957014,30 21.0724662,30 Z" id="形状" fill="#007AFF"></path>
                    <path d="M7.98972757,22.563122 L13.403275,22.563122 C13.7950863,22.563122 14.0799183,22.2744057 14.0799183,21.8772514 L14.0799183,16.3899169 C14.0799183,16.0048386 13.7950863,15.7039231 13.403275,15.7039231 L7.98972757,15.7039231 C7.60982993,15.7039231 7.3130235,16.0048386 7.3130235,16.3899169 L7.3130235,21.8772514 C7.3130235,22.2744057 7.60982993,22.563122 7.98972757,22.563122 Z M8.65454236,21.1913808 L8.65454236,17.0638347 L12.7266317,17.0638347 L12.7266317,21.1913808 L8.65454236,21.1913808 Z M9.85359657,19.987965 L11.5393939,19.987965 L11.5393939,18.2671273 L9.85359657,18.2671273 L9.85359657,19.987965 Z M7.98972757,14.3321819 L13.403275,14.3321819 C13.7950863,14.3321819 14.0799183,14.0433424 14.0799183,13.646188 L14.0799183,8.15884119 C14.0799183,7.77376292 13.7950863,7.4729213 13.403275,7.4729213 L7.98972757,7.4729213 C7.60982993,7.4729213 7.3130235,7.77376292 7.3130235,8.15884119 L7.3130235,13.646188 C7.3130235,14.0433424 7.60982993,14.3321819 7.98972757,14.3321819 Z M8.65454236,12.9722703 L8.65454236,8.84476109 L12.7266317,8.84476109 L12.7266317,12.9722703 L8.65454236,12.9722703 Z M9.85359657,11.7569263 L11.5393939,11.7569263 L11.5393939,10.0361008 L9.85359657,10.0361008 L9.85359657,11.7569263 Z M16.0981777,14.3321819 L21.5116887,14.3321819 C21.9034999,14.3321819 22.1884535,14.0433424 22.1884535,13.646188 L22.1884535,8.15884119 C22.1884535,7.77376292 21.9034999,7.4729213 21.5116887,7.4729213 L16.0981777,7.4729213 C15.7182801,7.4729213 15.4214129,7.77376292 15.4214129,8.15884119 L15.4214129,13.646188 C15.4214129,14.0433424 15.7182801,14.3321819 16.0981777,14.3321819 Z M16.763029,12.9722703 L16.763029,8.84476109 L20.8350454,8.84476109 L20.8350454,12.9722703 L16.763029,12.9722703 Z M17.9620467,11.7569263 L19.6478197,11.7569263 L19.6478197,10.0361008 L17.9620467,10.0361008 L17.9620467,11.7569263 Z M15.6114225,22.3585685 L17.309109,22.3585685 L17.309109,20.6377307 L15.6114225,20.6377307 L15.6114225,22.3585685 Z M20.2889653,22.3585685 L21.9865303,22.3585685 L21.9865303,20.6377307 L20.2889653,20.6377307 L20.2889653,22.3585685 Z M17.9501331,19.987965 L19.6478197,19.987965 L19.6478197,18.2671273 L17.9501331,18.2671273 L17.9501331,19.987965 Z M15.6114225,17.6052855 L17.309109,17.6052855 L17.309109,15.8965238 L15.6114225,15.8965238 L15.6114225,17.6052855 Z M20.2889653,17.6052855 L21.9865303,17.6052855 L21.9865303,15.8965238 L20.2889653,15.8965238 L20.2889653,17.6052855 Z" id="形状" fill="#007AFF"></path>
                </g>
            </g>
        </g>
    </g>
</svg>