<?xml version="1.0" encoding="UTF-8"?>
<svg width="29px" height="35px" viewBox="0 0 29 35" version="1.1" xmlns="http://www.w3.org/2000/svg" xmlns:xlink="http://www.w3.org/1999/xlink">
    <title>ear_filled</title>
    <g id="##杂项" stroke="none" stroke-width="1" fill="none" fill-rule="evenodd">
        <g id="听筒" fill-rule="nonzero">
            <g id="ear_filled">
                <rect id="矩形" fill="#000000" opacity="0" x="0" y="0" width="28.6816" height="34.0723"></rect>
                <path d="M24.1797,13.1445 C24.1797,16.0205 23.2306,17.6515 21.9416,19.0812 C21.5352,18.7473 20.9987,18.5352 20.4102,18.5352 C20.3816,18.5352 20.3531,18.5356 20.3254,18.5389 C21.6097,17.1489 22.5488,15.6729 22.5488,13.1445 C22.5488,8.31055 19.4434,5.06836 14.7754,5.06836 C9.96094,5.06836 6.72852,8.32031 6.72852,13.2129 L6.72852,24.3555 C6.72852,26.8164 8.22266,28.3496 10.6152,28.3496 C11.2087,28.3496 11.7506,28.2611 12.2422,28.0808 C12.4094,28.6526 12.7766,29.1391 13.261,29.4615 C12.4617,29.8312 11.5533,30.0195 10.5469,30.0195 C7.22656,30.0195 5.09766,27.8418 5.09766,24.4531 L5.09766,13.2129 C5.09766,7.37305 9.00391,3.4375 14.7754,3.4375 C20.4297,3.4375 24.1797,7.31445 24.1797,13.1445 Z M9.50195,19.5508 C9.05273,19.5508 8.68164,19.1797 8.68164,18.7402 L8.68164,13.0957 C8.68164,9.58984 11.1328,7.23633 14.7461,7.23633 C18.2715,7.23633 20.6152,9.58008 20.6152,13.0957 C20.6152,13.5352 20.2441,13.9062 19.8047,13.9062 C19.3555,13.9062 18.9844,13.5352 18.9844,13.0957 C18.9844,10.5273 17.3242,8.86719 14.7461,8.86719 C12.0801,8.86719 10.3125,10.5469 10.3125,13.0957 L10.3125,14.1016 L13.7891,14.1016 C15.752,14.1016 17.0508,15.2832 17.0508,17.0508 C17.0508,17.8027 16.7188,18.7305 16.2207,19.3652 L14.5801,21.4453 C14.3945,21.6797 14.1504,21.8066 13.9062,21.8066 C13.457,21.8066 13.0762,21.4453 13.0762,20.9961 C13.0762,20.791 13.1543,20.5957 13.291,20.4199 L14.8145,18.4961 C15.127,18.1152 15.3516,17.5586 15.3516,17.1289 C15.3516,16.2988 14.7461,15.7324 13.8184,15.7324 L10.3125,15.7324 L10.3125,18.7402 C10.3125,19.1797 9.94141,19.5508 9.50195,19.5508 Z" id="形状" fill="#FFFFFF"></path>
                <path d="M26.1621,28.6816 C26.5332,28.6816 26.7969,28.418 26.7969,28.0469 L26.7969,24.5508 C26.7969,24.1895 26.5332,23.916 26.1621,23.916 C25.8105,23.916 25.5273,24.1992 25.5273,24.5508 L25.5273,28.0469 C25.5273,28.4082 25.8105,28.6816 26.1621,28.6816 Z" id="路径" fill="#FFFFFF"></path>
                <path d="M23.2812,30.9766 C23.6426,30.9766 23.9258,30.6934 23.9258,30.332 L23.9258,22.2656 C23.9258,21.9141 23.6426,21.6309 23.2812,21.6309 C22.9297,21.6309 22.6465,21.9141 22.6465,22.2656 L22.6465,30.332 C22.6465,30.6934 22.9297,30.9766 23.2812,30.9766 Z" id="路径" fill="#FFFFFF"></path>
                <path d="M20.4102,32.1973 C20.7715,32.1973 21.0449,31.9141 21.0449,31.5625 L21.0449,21.0645 C21.0449,20.7031 20.7715,20.4199 20.4102,20.4199 C20.0586,20.4199 19.7754,20.7031 19.7754,21.0645 L19.7754,31.5625 C19.7754,31.9238 20.0488,32.1973 20.4102,32.1973 Z" id="路径" fill="#FFFFFF"></path>
                <path d="M17.5391,30.0977 C17.8906,30.0977 18.1738,29.8145 18.1738,29.4531 L18.1738,23.1445 C18.1738,22.793 17.8906,22.5 17.5391,22.5 C17.1777,22.5 16.8945,22.793 16.8945,23.1445 L16.8945,29.4531 C16.8945,29.8145 17.1777,30.0977 17.5391,30.0977 Z" id="路径" fill="#FFFFFF"></path>
                <path d="M14.6484,28.0078 C15.0195,28.0078 15.293,27.7246 15.293,27.373 L15.293,25.2344 C15.293,24.873 15.0195,24.5898 14.6484,24.5898 C14.3066,24.5898 14.0234,24.873 14.0234,25.2344 L14.0234,27.373 C14.0234,27.7246 14.3066,28.0078 14.6484,28.0078 Z" id="路径" fill="#FFFFFF"></path>
            </g>
        </g>
    </g>
</svg>