<?xml version="1.0" encoding="UTF-8"?>
<svg width="31px" height="40px" viewBox="0 0 31 40" version="1.1" xmlns="http://www.w3.org/2000/svg" xmlns:xlink="http://www.w3.org/1999/xlink">
    <title>fileicon_redenvelope_icon</title>
    <defs>
        <linearGradient x1="50%" y1="30.0745929%" x2="50.0019103%" y2="53.6515241%" id="linearGradient-1">
            <stop stop-color="#FF0A0A" offset="0%"></stop>
            <stop stop-color="#EA1515" offset="20.6440843%"></stop>
            <stop stop-color="#F56565" offset="100%"></stop>
        </linearGradient>
        <linearGradient x1="50%" y1="21.3286713%" x2="50%" y2="100%" id="linearGradient-2">
            <stop stop-color="#EDEDED" offset="0%"></stop>
            <stop stop-color="#FFFFFF" offset="100%"></stop>
        </linearGradient>
    </defs>
    <g id="##转账红包气泡" stroke="none" stroke-width="1" fill="none" fill-rule="evenodd">
        <g id="fileicon_redenvelope_icon" transform="translate(0, 0)" fill-rule="nonzero">
            <rect id="矩形" fill="#E14949" x="0.038784865" y="0.00873811566" width="30" height="40" rx="4"></rect>
            <g id="yensign.circle.fill" transform="translate(6, 16)">
                <rect id="矩形" fill="#000000" opacity="0" x="0" y="0" width="18" height="18"></rect>
                <path d="M18,9.00343167 C18,13.9577743 13.9577743,18 8.99649757,18 C4.0422186,18 0,13.9577743 0,9.00343167 C0,4.0422186 4.0422186,0 8.99649757,0 C13.9577743,0 18,4.0422186 18,9.00343167 Z M5.83185283,5.22378899 C5.83185283,5.32052674 5.85949016,5.43108316 5.92859058,5.54163958 L8.22957212,9.22454451 L6.74394151,9.22454451 C6.58501621,9.22454451 6.46064113,9.34199965 6.46064113,9.50785196 C6.46064113,9.66677018 6.58501621,9.79115942 6.74394151,9.79115942 L8.52667702,9.79115942 L8.52667702,10.7654003 L6.74394151,10.7654003 C6.58501621,10.7654003 6.46064113,10.8897895 6.46064113,11.0556418 C6.46064113,11.2076259 6.58501621,11.3320152 6.74394151,11.3320152 L8.52667702,11.3320152 L8.52667702,12.7278209 C8.52667702,13.0111284 8.72012422,13.2115097 8.99649757,13.2115097 C9.27294169,13.2115097 9.46638888,13.0111284 9.46638888,12.7278209 L9.46638888,11.3320152 L11.2974862,11.3320152 C11.4564044,11.3320152 11.5738595,11.2076259 11.5738595,11.0556418 C11.5738595,10.8897895 11.4564044,10.7654003 11.2974862,10.7654003 L9.46638888,10.7654003 L9.46638888,9.79115942 L11.2974862,9.79115942 C11.4564044,9.79115942 11.5738595,9.66677018 11.5738595,9.50785196 C11.5738595,9.34199965 11.4564044,9.22454451 11.2974862,9.22454451 L9.76349378,9.22454451 L12.0782798,5.52782091 C12.1404745,5.41726449 12.1681401,5.35507695 12.1681401,5.22378899 C12.1681401,4.96812595 11.9677588,4.79538198 11.7051829,4.79538198 C11.5323965,4.79538198 11.3804124,4.88521394 11.2767547,5.0648637 L9.01722911,8.83071601 L8.98270013,8.83071601 L6.73012284,5.0648637 C6.62647222,4.88521394 6.50901,4.78847619 6.29480296,4.78847619 C6.02532125,4.78847619 5.83185283,4.96122015 5.83185283,5.22378899 Z" id="形状" fill="#FF3B30"></path>
            </g>
            <path d="M15.5387849,19.0087381 C20.9572496,19.0087381 25.9809923,17.7826557 30.1116593,15.6920419 C30.0668839,11.8930724 30.0387849,10.1813909 30.0387849,3.89516603 C30.0170026,1.32423692 27.7306885,0.0567573657 26.03833,0.00873811566 C24.4880326,-0.00449564034 20.384271,-0.00121485334 15.3715266,0.00873811566 C10.5391282,0.00873811566 6.20190819,0.00873811566 4.21299831,0.00873811566 C0.967609825,0.00873811566 -0.046209634,2.94030647 0.038784865,3.80515383 C0.038178663,3.81814585 0.053537165,11.4824063 0,15.1783758 C4.30202548,17.5804177 9.69049017,19.0087381 15.5387849,19.0087381 Z" id="Oval-47" fill="url(#linearGradient-1)"></path>
            <path d="M24.3162557,13.8484038 C25.6826422,13.8484038 26.7903173,13.7415998 26.7903173,13.6098504 C26.7903173,13.478101 3.21958396,10.8484038 1.85319749,10.8484038 C0.48681102,10.8484038 21.8421941,13.478101 21.8421941,13.6098504 C21.8421941,13.7415998 22.9498692,13.8484038 24.3162557,13.8484038 Z" id="Oval-48" fill="url(#linearGradient-2)"></path>
        </g>
    </g>
</svg>