<?xml version="1.0" encoding="UTF-8"?>
<svg width="31px" height="30px" viewBox="0 0 31 30" version="1.1" xmlns="http://www.w3.org/2000/svg" xmlns:xlink="http://www.w3.org/1999/xlink">
    <title>icons_outlined_colorful_game_dark</title>
    <g id="02主界面-发现页" stroke="none" stroke-width="1" fill="none" fill-rule="evenodd">
        <g id="00发现页一级图标" transform="translate(-789, -134)" fill-rule="nonzero">
            <g id="游戏" transform="translate(789.1144, 92)">
                <g id="icons_outlined_colorful_game_dark" transform="translate(0, 42)">
                    <rect id="矩形" fill="#000000" opacity="0" x="0" y="0" width="30" height="30"></rect>
                    <path d="M29.5798967,15.005774 C29.5798967,23.2681174 22.9371957,30 14.7841927,30 C6.64268937,30 0,23.2681174 0,15.005774 C0,6.75488432 6.64268937,0.0230148867 14.7841927,0.0230148867 C22.9371957,0.0230148867 29.5798967,6.75488432 29.5798967,15.005774 Z M9.50415879,8.55005303 C8.09613268,8.86075258 7.81225776,9.40161043 7.23314781,10.6329078 C6.51778627,12.1518913 5.77970451,14.1082132 5.34821788,15.5121175 C5.09841168,16.4326564 4.91673126,17.2152088 4.91673126,17.894065 C4.91673126,19.4705998 5.93867632,20.4948348 7.46025705,20.4948348 C8.34593889,20.4948348 8.99318626,20.1611218 9.54957598,19.4591696 L10.8213389,17.894065 C11.0143794,17.6754782 11.2074083,17.5718999 11.4345059,17.5718999 L18.1112989,17.5718999 C18.3496636,17.5718999 18.5427971,17.6754782 18.7244194,17.894065 L19.9962404,19.4591696 C20.5526185,20.1611218 21.2112028,20.4948348 22.085478,20.4948348 C23.6184537,20.4948348 24.6290038,19.4705998 24.6290038,17.894065 C24.6290038,17.2152088 24.4587765,16.4326564 24.1975055,15.5121175 C23.7661235,14.1082132 23.0394019,12.1518913 22.3239589,10.6329078 C21.7449071,9.40161043 21.4609625,8.86075258 20.0415879,8.55005303 C18.7244194,8.23935347 16.930289,8.05523391 14.772914,8.05523391 C12.6268178,8.05523391 10.8213389,8.23935347 9.50415879,8.55005303 Z M12.024976,10.95512 L12.024976,12.3015437 L13.3080757,12.3015437 C13.6714365,12.3015437 13.8985225,12.5201304 13.8985225,12.8538434 C13.8985225,13.2105346 13.6714365,13.4406693 13.3080757,13.4406693 L12.024976,13.4406693 L12.024976,14.7986174 C12.024976,15.1438784 11.8091687,15.3509172 11.4799347,15.3509172 C11.150631,15.3509172 10.946242,15.1438784 10.946242,14.7986174 L10.946242,13.4406693 L9.61770178,13.4406693 C9.26570106,13.4406693 9.04995194,13.2105346 9.04995194,12.8538434 C9.04995194,12.5201304 9.26570106,12.3015437 9.61770178,12.3015437 L10.946242,12.3015437 L10.946242,10.95512 C10.946242,10.6098943 11.150631,10.379736 11.4799347,10.379736 C11.8091687,10.379736 12.024976,10.6098943 12.024976,10.95512 Z M18.0090927,13.8895086 C18.0090927,14.4419262 17.5661995,14.8792176 17.0212164,14.8792176 C16.487512,14.8792176 16.0446188,14.4419262 16.0446188,13.8895086 C16.0446188,13.3372088 16.487512,12.8999175 17.0212164,12.8999175 C17.5661995,12.8999175 18.0090927,13.3372088 18.0090927,13.8895086 Z M20.1211203,11.749126 C20.1211203,12.3129738 19.689622,12.7502651 19.1445227,12.7502651 C18.6109345,12.7502651 18.1566463,12.3129738 18.1566463,11.749126 C18.1566463,11.20828 18.6109345,10.7709886 19.1445227,10.7709886 C19.689622,10.7709886 20.1211203,11.20828 20.1211203,11.749126 Z" id="形状" fill="#0A84FF"></path>
                </g>
            </g>
        </g>
    </g>
</svg>