<?xml version="1.0" encoding="UTF-8"?>
<svg width="30px" height="30px" viewBox="0 0 30 30" version="1.1" xmlns="http://www.w3.org/2000/svg" xmlns:xlink="http://www.w3.org/1999/xlink">
    <title>icons_outlined_wechatpay</title>
    <g id="03主界面-我的页面" stroke="none" stroke-width="1" fill="none" fill-rule="evenodd">
        <g id="icons_outlined_wechatpay" fill-rule="nonzero">
            <rect id="矩形" fill="#000000" opacity="0" x="0" y="0" width="30" height="30"></rect>
            <path d="M29.5798967,15.005774 C29.5798967,23.2681174 22.9371957,30 14.7841927,30 C6.64268937,30 0,23.2681174 0,15.005774 C0,6.75488432 6.64268937,0.0230148867 14.7841927,0.0230148867 C22.9371957,0.0230148867 29.5798967,6.75488432 29.5798967,15.005774 Z M13.1377322,14.4764523 C13.1377322,15.1323304 13.512488,15.6846302 14.0461924,15.9494089 L14.0461924,24.1772261 C14.0461924,24.6490436 14.3528108,24.9941867 14.7841927,24.9941867 C15.227086,24.9941867 15.5337044,24.6604737 15.5337044,24.1772261 L15.5337044,15.9378609 C16.0674088,15.6732 16.4420483,15.1207824 16.4420483,14.4764523 C16.4420483,13.5442476 15.7040479,12.8077694 14.7841927,12.8077694 C13.8644538,12.8077694 13.1377322,13.5442476 13.1377322,14.4764523 Z M7.77818905,8.31990652 C6.23391135,9.9769826 5.3822866,12.1748694 5.3822866,14.4764523 C5.3822866,16.8124435 6.22255124,18.9758042 7.77818905,20.6559174 C8.11884128,21.0241565 8.62982543,21.0471346 8.94775743,20.6904435 C9.23163235,20.3567304 9.19757527,19.9194391 8.85692304,19.5166739 C7.61921723,18.1702738 6.93792441,16.4096783 6.93792441,14.4764523 C6.93792441,12.5662045 7.61921723,10.7940139 8.85692304,9.47065085 C9.19757527,9.06788562 9.23163235,8.59607997 8.95911755,8.28538042 C8.64117392,7.91714129 8.11884128,7.92865391 7.77818905,8.31990652 Z M20.6207559,8.28538042 C20.3368113,8.59607997 20.382275,9.06788562 20.7115671,9.47065085 C21.9605981,10.7940139 22.6305773,12.5662045 22.6305773,14.4764523 C22.6305773,16.4096783 21.9605981,18.1702738 20.7115671,19.5166739 C20.37088,19.9194391 20.3368113,20.3567304 20.6320347,20.6904435 C20.9386531,21.0471346 21.4609625,21.0241565 21.8016496,20.6559174 C23.345904,18.9758042 24.1862268,16.8124435 24.1862268,14.4764523 C24.1862268,12.1748694 23.3346253,9.9769826 21.8016496,8.31990652 C21.4609625,7.92865391 20.9386531,7.91714129 20.6207559,8.28538042 Z M10.3444234,10.8975804 C9.52686738,11.8872304 9.07266054,13.1645783 9.07266054,14.4764523 C9.07266054,15.7997565 9.52686738,17.0771044 10.3444234,18.0782435 C10.6623671,18.4810087 11.2528255,18.4925567 11.5707691,18.1357477 C11.8319587,17.8020346 11.79789,17.3992694 11.4572261,16.9619781 C10.9121849,16.3061 10.6282983,15.4660434 10.6282983,14.4764523 C10.6282983,13.5673436 10.9235334,12.727287 11.4685746,12.0022389 C11.786495,11.5765191 11.8319587,11.162253 11.5707691,10.8515417 C11.2301169,10.4602891 10.6623671,10.4833026 10.3444234,10.8975804 Z M17.9976977,10.8515417 C17.747938,11.162253 17.7932855,11.5765191 18.0999039,12.0022389 C18.6450033,12.727287 18.9515054,13.5673436 18.9515054,14.4764523 C18.9515054,15.4660434 18.656282,16.3061 18.1225776,16.9619781 C17.7706118,17.3992694 17.7365431,17.8020346 17.9976977,18.1357477 C18.3269899,18.4925567 18.9061579,18.4810087 19.2240551,18.0782435 C20.0415879,17.0771044 20.4958761,15.7997565 20.4958761,14.4764523 C20.4958761,13.1645783 20.0415879,11.8872304 19.2240551,10.8975804 C18.9061579,10.4833026 18.3383849,10.4602891 17.9976977,10.8515417 Z" id="形状" fill="#0A84FF"></path>
        </g>
    </g>
</svg>