<?xml version="1.0" encoding="UTF-8"?>
<svg width="31px" height="30px" viewBox="0 0 31 30" version="1.1" xmlns="http://www.w3.org/2000/svg" xmlns:xlink="http://www.w3.org/1999/xlink">
    <title>WeChat_Lab_Logo_light_small</title>
    <g id="03主界面-我的页面" stroke="none" stroke-width="1" fill="none" fill-rule="evenodd">
        <g id="00我的页面一级图标" transform="translate(-628, -74)" fill-rule="nonzero">
            <g id="WeChat_Lab_Logo_light_small" transform="translate(628.2522, 74)">
                <rect id="矩形" fill="#000000" opacity="0" x="0" y="0" width="30" height="30"></rect>
                <path d="M14.772914,14.6950391 C18.7470931,14.6950391 22.0401305,11.3808869 22.0401305,7.36478259 C22.0401305,3.33716564 18.7470931,0.0115074669 14.772914,0.0115074669 C10.7872702,0.0115074669 7.51702273,3.33716564 7.51702273,7.36478259 C7.51702273,11.3808869 10.8099904,14.6950391 14.772914,14.6950391 Z M14.772914,12.5662045 C11.8660274,12.5662045 9.62906189,10.299183 9.62906189,7.36478259 C9.62906189,4.41886955 11.8660274,2.1518952 14.772914,2.1518952 C17.6798006,2.1518952 19.9393817,4.41886955 19.9393817,7.36478259 C19.9393817,10.299183 17.6798006,12.5662045 14.772914,12.5662045 Z M14.7841927,29.9770219 C22.9484745,29.9770219 29.5798967,23.2681174 29.5798967,14.994226 C29.5798967,6.72035822 22.9484745,0 14.7841927,0 C6.61998078,0 0,6.72035822 0,14.994226 C0,23.2681174 6.61998078,29.9770219 14.7841927,29.9770219 Z M14.7841927,27.8365215 C7.77818905,27.8365215 2.11203916,22.0943478 2.11203916,14.994226 C2.11203916,7.89412781 7.77818905,2.1518952 14.7841927,2.1518952 C21.7902546,2.1518952 27.4564742,7.89412781 27.4564742,14.994226 C27.4564742,22.0943478 21.7902546,27.8365215 14.7841927,27.8365215 Z" id="形状" fill="#0A84FF"></path>
            </g>
        </g>
    </g>
</svg>